#!OML:ASF I:\Actors\actors\Patient Classification 1\Patient 1\Session 1\Subject1.ASF
:FULLY-SPECIFIED
:DEGREES
1545
root 1.36716 17.6597 8.98757 17.1018 -26.4328 -11.2942
lowerback 0.429066 -2.82767 1.0368
upperback -12.8669 -3.80699 1.75505
thorax -14.2258 -1.89787 1.86154
lowerneck -4.70291 -10.0348 -5.08715
upperneck -6.41845 -12.9403 14.9915
head 0.239901 -6.50401 4.95935
rclavicle 5.60573e-014 -4.77083e-015
rhumerus -50.732 -11.5466 -72.3842
rradius 32.4898
rwrist 28.3443
rhand 8.69945 -22.8622
rfingers 7.12502
rthumb 33.8918 -49.67
lclavicle 5.60573e-014 -4.77083e-015
lhumerus -38.9853 -4.52917 95.3984
lradius 24.9897
lwrist -12.2942
lhand -23.852 -17.7803
lfingers 7.12502
lthumb 2.62025 12.1833
rfemur -17.6267 29.7325 13.405
rtibia 5.1261
rfoot -0.438733 -8.4736
rtoes -9.67939
lfemur -22.5645 112.97 -35.9548
ltibia 2.30784
lfoot 241.729 127.099
ltoes 51.1357
1546
root 1.39313 17.6628 8.98973 17.1797 -26.3832 -11.3624
lowerback 0.448653 -2.85627 1.0357
upperback -12.9465 -3.8462 1.7763
thorax -14.3343 -1.91426 1.89723
lowerneck -2.34809 -9.69998 -5.66446
upperneck -11.032 -12.0101 16.5358
head -1.42736 -6.30693 5.8454
rclavicle 5.08889e-014 1.11319e-014
rhumerus -50.7777 -11.4893 -72.3557
rradius 32.5192
rwrist 28.1194
rhand 8.75532 -22.9299
rfingers 7.12502
rthumb 33.9449 -49.7259
lclavicle 5.08889e-014 1.11319e-014
lhumerus -39.2621 -4.70157 95.6007
lradius 25.164
lwrist -12.1177
lhand -23.8697 -17.6796
lfingers 7.12502
lthumb 2.6032 12.2843
rfemur -17.742 29.7044 13.2867
rtibia 5.05034
rfoot -0.0882863 -8.50605
rtoes -8.98589
lfemur -22.4824 112.903 -35.8784
ltibia 2.32587
lfoot 241.848 127.271
ltoes 51.3448
1547
root 1.41664 17.6668 8.99182 17.2694 -26.3587 -11.4052
lowerback 0.424251 -2.85088 1.00055
upperback -13.0057 -3.84433 1.7729
thorax -14.3895 -1.90951 1.91486
lowerneck -1.23317 -9.52064 -6.1624
upperneck -13.9437 -11.4364 17.6292
head -2.41111 -6.18529 6.46336
rclavicle -6.59965e-014 -2.22639e-014
rhumerus -50.8655 -11.5346 -72.2939
rradius 32.5242
rwrist 28.0329
rhand 8.8193 -22.8589
rfingers 7.12502
rthumb 34.0056 -49.6414
lclavicle -6.59965e-014 -2.22639e-014
lhumerus -39.501 -4.95418 95.8005
lradius 25.3266
lwrist -11.8504
lhand -23.831 -17.5882
lfingers 7.12502
lthumb 2.64058 12.3752
rfemur -17.8677 29.73 13.1359
rtibia 5.00846
rfoot 0.148655 -8.55805
rtoes -8.32631
lfemur -22.3242 112.846 -35.7686
ltibia 2.32569
lfoot 241.899 127.314
ltoes 51.4146
1548
root 1.44008 17.671 8.99597 17.3801 -26.2923 -11.5011
lowerback 0.439128 -2.84125 1.05993
upperback -13.0974 -3.82896 1.7705
thorax -14.5175 -1.9084 1.88498
lowerneck -0.954383 -9.56668 -5.94164
upperneck -15.756 -11.3082 17.7299
head -3.01311 -6.20748 6.57023
rclavicle -8.0309e-014 -1.98785e-014
rhumerus -51.1098 -11.5581 -72.2237
rradius 32.5366
rwrist 28.0807
rhand 8.80901 -22.9002
rfingers 7.12502
rthumb 33.9959 -49.6849
lclavicle -8.0309e-014 -1.98785e-014
lhumerus -39.838 -5.23259 96.0081
lradius 25.4473
lwrist -11.5485
lhand -23.7024 -17.6611
lfingers 7.12502
lthumb 2.76481 12.3007
rfemur -17.9564 29.8464 13.0542
rtibia 4.94916
rfoot 0.320172 -8.71347
rtoes -7.84347
lfemur -22.2126 112.765 -35.6437
ltibia 2.31953
lfoot 241.896 127.244
ltoes 51.3558
1549
root 1.46212 17.6751 9.00499 17.4432 -26.2633 -11.6343
lowerback 0.505649 -2.81553 1.18212
upperback -13.1811 -3.78664 1.75374
thorax -14.6754 -1.9023 1.80438
lowerneck -0.558095 -9.51464 -5.93146
upperneck -17.4618 -11.0585 17.944
head -3.59996 -6.16593 6.75672
rclavicle -1.11319e-014 2.22639e-014
rhumerus -51.4275 -11.5733 -72.1698
rradius 32.4984
rwrist 28.2527
rhand 8.7657 -22.9156
rfingers 7.12502
rthumb 33.9547 -49.7094
lclavicle -1.11319e-014 2.22639e-014
lhumerus -40.2725 -5.49757 96.176
lradius 25.569
lwrist -11.2877
lhand -23.6667 -17.6436
lfingers 7.12502
lthumb 2.79926 12.3178
rfemur -17.9371 29.9036 13.095
rtibia 4.86393
rfoot 0.546995 -8.79953
rtoes -7.67058
lfemur -22.4806 112.773 -35.8281
ltibia 2.36334
lfoot 242.027 127.517
ltoes 51.5159
1550
root 1.48033 17.6802 9.02138 17.3803 -26.3997 -11.7492
lowerback 0.579305 -2.75752 1.25473
upperback -13.1823 -3.70152 1.73801
thorax -14.7317 -1.8703 1.74122
lowerneck -0.439935 -9.48572 -5.90265
upperneck -18.9361 -10.8518 18.2189
head -4.06718 -6.13331 6.93501
rclavicle -8.70677e-014 -2.62396e-014
rhumerus -51.6843 -11.5553 -72.149
rradius 32.4075
rwrist 28.5229
rhand 8.80882 -22.8184
rfingers 7.12502
rthumb 33.9957 -49.6031
lclavicle -8.70677e-014 -2.62396e-014
lhumerus -40.6423 -5.41832 96.1599
lradius 25.6532
lwrist -11.3419
lhand -23.6545 -17.6852
lfingers 7.12502
lthumb 2.81099 12.276
rfemur -17.7192 29.8751 13.2482
rtibia 4.76045
rfoot 0.869827 -8.64009
rtoes -8.49706
lfemur -23.3814 113.013 -36.6209
ltibia 2.51348
lfoot 242.341 128.336
ltoes 52.0777
1551
root 1.49773 17.685 9.03853 17.3207 -26.5596 -11.8111
lowerback 0.637033 -2.69942 1.28253
upperback -13.1883 -3.61945 1.73151
thorax -14.7795 -1.83401 1.71229
lowerneck -0.493594 -9.49228 -5.88
upperneck -20.2201 -10.7195 18.4019
head -4.44958 -6.11901 7.06749
rclavicle 9.14409e-015 1.19271e-014
rhumerus -51.9266 -11.4453 -72.1688
rradius 32.3037
rwrist 28.7654
rhand 8.84862 -22.8484
rfingers 7.12502
rthumb 34.0335 -49.6247
lclavicle 9.14409e-015 1.19271e-014
lhumerus -41.0245 -5.17232 96.0661
lradius 25.7265
lwrist -11.5124
lhand -23.607 -17.7567
lfingers 7.12502
lthumb 2.85692 12.2039
rfemur -17.5199 29.9528 13.3001
rtibia 4.60621
rfoot 1.13816 -8.60401
rtoes -9.06072
lfemur -24.1764 113.258 -37.3707
ltibia 2.66136
lfoot 242.563 129.001
ltoes 52.5864
1552
root 1.51578 17.6887 9.05288 17.3055 -26.6709 -11.8227
lowerback 0.742485 -2.65218 1.31367
upperback -13.2618 -3.55632 1.69434
thorax -14.9448 -1.80885 1.65756
lowerneck -0.49628 -9.50065 -5.84569
upperneck -21.3818 -10.6143 18.4905
head -4.81201 -6.10999 7.16766
rclavicle -3.1408e-014 2.78299e-014
rhumerus -52.2292 -11.4227 -72.1382
rradius 32.105
rwrist 29.128
rhand 8.87844 -22.7764
rfingers 7.12502
rthumb 34.0618 -49.5464
lclavicle -3.1408e-014 2.78299e-014
lhumerus -41.5497 -5.24352 96.0842
lradius 25.8203
lwrist -11.3543
lhand -23.6711 -17.6945
lfingers 7.12502
lthumb 2.79501 12.2669
rfemur -17.4484 30.0658 13.2289
rtibia 4.49409
rfoot 1.28099 -8.71654
rtoes -8.69349
lfemur -24.5246 113.391 -37.7852
ltibia 2.70331
lfoot 242.63 129.307
ltoes 52.8598
1553
root 1.53141 17.6923 9.0699 17.2888 -26.837 -11.8822
lowerback 0.850443 -2.58012 1.39937
upperback -13.3414 -3.45599 1.64457
thorax -15.1246 -1.77381 1.55395
lowerneck -0.410435 -9.43147 -5.50785
upperneck -22.602 -10.4024 18.4384
head -5.25733 -6.06629 7.19022
rclavicle 4.29375e-014 1.66979e-014
rhumerus -52.6274 -11.537 -72.0035
rradius 31.8576
rwrist 29.752
rhand 8.95923 -22.4907
rfingers 7.12502
rthumb 34.1385 -49.2436
lclavicle 4.29375e-014 1.66979e-014
lhumerus -42.1869 -5.4439 96.1404
lradius 25.9232
lwrist -11.0914
lhand -22.8846 -16.8537
lfingers 7.12502
lthumb 3.55453 13.0964
rfemur -17.3822 30.097 13.242
rtibia 4.47451
rfoot 1.3807 -8.65655
rtoes -8.42395
lfemur -24.946 113.599 -38.2199
ltibia 2.76656
lfoot 242.76 129.757
ltoes 53.2662
